<svg xmlns="http://www.w3.org/2000/svg" viewBox="0 0 764 749.96"><defs><style>.cls-1,.cls-2{fill:#fff;}.cls-2{opacity:0;}</style></defs><title>Pause_Rotating_Round_Logo_Icon_Music_SVG_AI_1</title><g id="Layer_2" data-name="Layer 2"><g id="Layer_1-2" data-name="Layer 1"><path class="cls-1" d="M716.92,233.48A363.43,363.43,0,0,0,454.55,18.72a27.54,27.54,0,0,0-33,27h0a27.56,27.56,0,0,0,22.13,27C584.31,101.3,690.5,226,690.5,375S584.31,648.66,443.63,677.29a27.56,27.56,0,0,0-22.13,27h0a27.54,27.54,0,0,0,33,27A363.26,363.26,0,0,0,745.5,375,361.24,361.24,0,0,0,716.92,233.48Z"/><path class="cls-1" d="M319.45,72.86a27.56,27.56,0,0,0,22-27h0a27.54,27.54,0,0,0-33.1-27A363.25,363.25,0,0,0,18.5,375,363.35,363.35,0,0,0,308.4,731a27.54,27.54,0,0,0,33.1-27h0a27.56,27.56,0,0,0-22-27c-140.22-29-246-153.43-246-302.11S179.23,101.85,319.45,72.86Z"/><path class="cls-2" d="M734,226.28A381.93,381.93,0,0,0,458.24.59a29,29,0,0,0-34.73,28.34h0a29,29,0,0,0,23.25,28.35C594.6,87.37,706.2,218.39,706.2,375S594.6,662.59,446.76,692.68A29,29,0,0,0,423.51,721h0a29,29,0,0,0,34.73,28.34A381.74,381.74,0,0,0,764,375,379.62,379.62,0,0,0,734,226.28Z"/><path class="cls-2" d="M316.27,57.49a29,29,0,0,0,23.17-28.34h0A28.94,28.94,0,0,0,304.65.82,381.74,381.74,0,0,0,0,375,381.85,381.85,0,0,0,304.65,749.14a28.94,28.94,0,0,0,34.78-28.33h0a29,29,0,0,0-23.17-28.34C168.91,662,57.8,531.23,57.8,375S168.91,88,316.27,57.49Z"/></g></g></svg>