<svg xmlns="http://www.w3.org/2000/svg" viewBox="0 0 743.22 743.22"><defs><style>.cls-1{fill:#fff;}.cls-2{opacity:0;}</style></defs><title>Pause_Rotating_Round_Logo_Icon_Music_SVG_AI</title><g id="Layer_2" data-name="Layer 2"><g id="Layer_1-2" data-name="Layer 1"><path class="cls-1" d="M705.17,229A363.43,363.43,0,0,0,442.79,14.24a27.54,27.54,0,0,0-33,27h0a27.56,27.56,0,0,0,22.13,27C572.55,96.82,678.75,221.49,678.75,370.5S572.55,644.18,431.87,672.82a27.56,27.56,0,0,0-22.13,27h0a27.54,27.54,0,0,0,33,27,363.26,363.26,0,0,0,291-356.26A361.24,361.24,0,0,0,705.17,229Z"/><path class="cls-1" d="M307.7,68.39a27.56,27.56,0,0,0,22-27h0a27.54,27.54,0,0,0-33.1-27,363.25,363.25,0,0,0-289.9,356,363.35,363.35,0,0,0,289.9,356,27.54,27.54,0,0,0,33.1-27h0a27.56,27.56,0,0,0-22-27c-140.22-29-246-153.43-246-302.11S167.48,97.38,307.7,68.39Z"/><path class="cls-2" d="M716,511.43a371.54,371.54,0,0,0-34.42-344.91,28.16,28.16,0,0,0-43.38-4.39h0a28.17,28.17,0,0,0-3.51,35.5c81,122.39,67.64,289.28-40.08,397s-274.6,121.07-397,40.08a28.17,28.17,0,0,0-35.5,3.51h0a28.16,28.16,0,0,0,4.39,43.38,371.36,371.36,0,0,0,467.86-47.21A369.3,369.3,0,0,0,716,511.43Z"/><path class="cls-2" d="M544.79,108a28.18,28.18,0,0,0,35.43-3.56h0A28.16,28.16,0,0,0,575.78,61a371.36,371.36,0,0,0-466.94,47.81A371.46,371.46,0,0,0,61,575.78a28.16,28.16,0,0,0,43.42,4.44h0A28.18,28.18,0,0,0,108,544.79C27.59,422.47,41.12,256.08,148.6,148.6S422.47,27.59,544.79,108Z"/></g></g></svg>