<svg xmlns="http://www.w3.org/2000/svg" viewBox="0 0 727 727"><defs><style>.cls-1{fill:#fff;}.cls-2{fill:none;stroke:#fff;stroke-linecap:round;stroke-linejoin:round;stroke-width:40px;}</style></defs><title>Asset 4</title><g id="Layer_2" data-name="Layer 2"><g id="Layer_1-2" data-name="Layer 1"><path class="cls-1" d="M224.5,274.5l99.58,88.89L224.5,452.8V274.5m0-40a40,40,0,0,0-40,40V452.8a40,40,0,0,0,66.72,29.76l99.58-89.41a40,40,0,0,0-.09-59.6l-99.58-88.89a40,40,0,0,0-26.65-10.16Z"/><line class="cls-2" x1="532.5" y1="254.5" x2="532.5" y2="468.55"/><path class="cls-1" d="M387.64,274.5l99.58,88.89L387.64,452.8V274.5m0-40a40,40,0,0,0-40,40V452.8a40,40,0,0,0,66.72,29.76l99.58-89.41a40,40,0,0,0-.09-59.6l-99.58-88.89a40,40,0,0,0-26.65-10.16Z"/><path class="cls-1" d="M700.38,500.27a363.43,363.43,0,0,0-33.67-337.39,27.54,27.54,0,0,0-42.44-4.3h0a27.56,27.56,0,0,0-3.43,34.72c79.23,119.72,66.16,283-39.2,388.33S313,700.07,193.31,620.85a27.56,27.56,0,0,0-34.72,3.43h0a27.54,27.54,0,0,0,4.3,42.44,363.26,363.26,0,0,0,457.65-46.18A361.24,361.24,0,0,0,700.38,500.27Z"/><path class="cls-1" d="M532.9,105.65a27.56,27.56,0,0,0,34.66-3.48h0a27.54,27.54,0,0,0-4.34-42.47,363.25,363.25,0,0,0-456.75,46.77A363.35,363.35,0,0,0,59.7,563.22a27.54,27.54,0,0,0,42.47,4.34h0a27.56,27.56,0,0,0,3.48-34.66C27,413.25,40.22,250.49,145.36,145.36S413.25,27,532.9,105.65Z"/></g></g></svg>