<svg xmlns="http://www.w3.org/2000/svg" viewBox="0 0 664.6 672"><defs><style>.cls-1{fill:#fff;}</style></defs><title>ProtoPage_Music_Play_Logo_Icon_SVG</title><g id="Layer_2" data-name="Layer 2"><g id="Layer_1-2" data-name="Layer 1"><path class="cls-1" d="M594.94,445.36a281.31,281.31,0,1,1,15.29-171A27.57,27.57,0,0,0,637.08,296h0a27.5,27.5,0,0,0,26.83-33.48C630.66,113.47,498.42,1.76,339.76,0A335.35,335.35,0,0,0,0,333.13C-1.55,520,149.48,672,336,672c160.34,0,294.43-112.32,327.93-262.57A27.48,27.48,0,0,0,637.09,376h0a27.57,27.57,0,0,0-26.86,21.66A277.83,277.83,0,0,1,594.94,445.36Z"/><path class="cls-1" d="M289,233,441,335.7,289,439V233m0-55a55,55,0,0,0-55,55V439a55,55,0,0,0,85.92,45.49l152-103.3a55,55,0,0,0-.12-91.06l-152-102.7A55,55,0,0,0,289,178Z"/></g></g></svg>