<svg xmlns="http://www.w3.org/2000/svg" viewBox="0 0 727 727"><defs><style>.cls-1{fill:#fff;}.cls-2{fill:none;stroke:#fff;stroke-linecap:round;stroke-linejoin:round;stroke-width:40px;}</style></defs><title>ProtoPage_Music_Go_Backwards_Logo_Icon_SVG</title><g id="Layer_2" data-name="Layer 2"><g id="Layer_1-2" data-name="Layer 1"><path class="cls-1" d="M504.5,272.24v178.3l-99.58-88.89,99.58-89.41m0-40a40,40,0,0,0-26.73,10.24L378.2,331.89a40,40,0,0,0,.09,59.6l99.58,88.89a40,40,0,0,0,66.64-29.84V272.24a40,40,0,0,0-40-40Z"/><line class="cls-2" x1="196.5" y1="470.55" x2="196.5" y2="256.5"/><path class="cls-1" d="M341.36,272.24v178.3l-99.58-88.89,99.58-89.41m0-40a40,40,0,0,0-26.73,10.24l-99.58,89.41a40,40,0,0,0,.09,59.6l99.58,88.89a40,40,0,0,0,66.64-29.84V272.24a40,40,0,0,0-40-40Z"/><path class="cls-1" d="M500.27,26.62A363.43,363.43,0,0,0,162.88,60.29a27.54,27.54,0,0,0-4.3,42.44h0a27.56,27.56,0,0,0,34.72,3.43C313,26.93,476.28,40,581.64,145.36S700.07,414,620.85,533.69a27.56,27.56,0,0,0,3.43,34.72h0a27.54,27.54,0,0,0,42.44-4.3,363.26,363.26,0,0,0-46.18-457.65A361.24,361.24,0,0,0,500.27,26.62Z"/><path class="cls-1" d="M105.65,194.1a27.56,27.56,0,0,0-3.48-34.66h0a27.54,27.54,0,0,0-42.47,4.34,363.25,363.25,0,0,0,46.77,456.75A363.35,363.35,0,0,0,563.22,667.3a27.54,27.54,0,0,0,4.34-42.47h0a27.56,27.56,0,0,0-34.66-3.48C413.25,700,250.49,686.78,145.36,581.64S27,313.75,105.65,194.1Z"/></g></g></svg>