<svg xmlns="http://www.w3.org/2000/svg" viewBox="0 0 727 713.64"><defs><style>.cls-1{fill:#fff;}.cls-2{fill:none;stroke:#fff;stroke-linecap:round;stroke-linejoin:round;stroke-width:55px;}</style></defs><title>Asset 3</title><g id="Layer_2" data-name="Layer 2"><g id="Layer_1-2" data-name="Layer 1"><path class="cls-1" d="M698.42,215.32A363.43,363.43,0,0,0,436,.56a27.54,27.54,0,0,0-33,27h0a27.56,27.56,0,0,0,22.13,27C565.81,83.14,672,207.81,672,356.82S565.81,630.5,425.13,659.13a27.56,27.56,0,0,0-22.13,27h0a27.54,27.54,0,0,0,33,27A363.26,363.26,0,0,0,727,356.82,361.24,361.24,0,0,0,698.42,215.32Z"/><path class="cls-1" d="M301,54.7a27.56,27.56,0,0,0,22-27h0a27.54,27.54,0,0,0-33.1-27A363.25,363.25,0,0,0,0,356.82a363.35,363.35,0,0,0,289.9,356,27.54,27.54,0,0,0,33.1-27h0a27.56,27.56,0,0,0-22-27C160.73,629.94,55,505.5,55,356.82S160.73,83.69,301,54.7Z"/><line class="cls-2" x1="302" y1="250.82" x2="302" y2="462.32"/><line class="cls-2" x1="425" y1="250.82" x2="425" y2="462.32"/></g></g></svg>