<svg xmlns="http://www.w3.org/2000/svg" viewBox="0 0 706.13 714"><defs><style>.cls-1{fill:#fff;}</style></defs><title>Asset 2</title><g id="Layer_2" data-name="Layer 2"><g id="Layer_1-2" data-name="Layer 1"><path class="cls-1" d="M632.12,473.2a298.89,298.89,0,1,1,16.24-181.71,29.29,29.29,0,0,0,28.54,23h0a29.21,29.21,0,0,0,28.51-35.58C670.08,120.56,529.57,1.87,361,0A356.31,356.31,0,0,0,0,353.95C-1.65,552.51,158.82,714,357,714c170.36,0,312.84-119.34,348.42-279A29.2,29.2,0,0,0,676.9,399.5h0a29.29,29.29,0,0,0-28.54,23A295.19,295.19,0,0,1,632.12,473.2Z"/><path class="cls-1" d="M307.77,254l152,102.7L307.77,460V254m0-55a55,55,0,0,0-55,55V460a55,55,0,0,0,85.92,45.49l152-103.3a55,55,0,0,0-.12-91.06l-152-102.7a55,55,0,0,0-30.8-9.43Z"/></g></g></svg>